<svg width="38" height="39" viewBox="0 0 38 39" fill="none" xmlns="http://www.w3.org/2000/svg">
<g filter="url(#filter0_dddi_526_16170)">
<g clip-path="url(#clip0_526_16170)">
<path d="M3 15.509C3 11.0286 3 8.78835 3.87195 7.07706C4.63893 5.57176 5.86278 4.34792 7.36808 3.58093C9.07937 2.70898 11.3196 2.70898 15.8 2.70898H22.2C26.6804 2.70898 28.9206 2.70898 30.6319 3.58093C32.1372 4.34792 33.3611 5.57176 34.1281 7.07706C35 8.78835 35 11.0286 35 15.509V21.909C35 26.3894 35 28.6296 34.1281 30.3409C33.3611 31.8462 32.1372 33.07 30.6319 33.837C28.9206 34.709 26.6804 34.709 22.2 34.709H15.8C11.3196 34.709 9.07937 34.709 7.36808 33.837C5.86278 33.07 4.63893 31.8462 3.87195 30.3409C3 28.6296 3 26.3894 3 21.909V15.509Z" fill="white"/>
<path d="M3 15.509C3 11.0286 3 8.78835 3.87195 7.07706C4.63893 5.57176 5.86278 4.34792 7.36808 3.58093C9.07937 2.70898 11.3196 2.70898 15.8 2.70898H22.2C26.6804 2.70898 28.9206 2.70898 30.6319 3.58093C32.1372 4.34792 33.3611 5.57176 34.1281 7.07706C35 8.78835 35 11.0286 35 15.509V21.909C35 26.3894 35 28.6296 34.1281 30.3409C33.3611 31.8462 32.1372 33.07 30.6319 33.837C28.9206 34.709 26.6804 34.709 22.2 34.709H15.8C11.3196 34.709 9.07937 34.709 7.36808 33.837C5.86278 33.07 4.63893 31.8462 3.87195 30.3409C3 28.6296 3 26.3894 3 21.909V15.509Z" fill="url(#paint0_linear_526_16170)" fill-opacity="0.2"/>
<g opacity="0.14" clip-path="url(#clip1_526_16170)">
<path fill-rule="evenodd" clip-rule="evenodd" d="M18.9612 2.70898H19.0388V4.67022C20.8929 4.67524 22.6625 5.03968 24.2816 5.69753V2.70898H24.3592V5.72937C25.7339 6.29758 26.9986 7.07781 28.1126 8.0293H29.602V2.70898H29.6796V8.0293H35V8.10697H29.6796V9.59626C30.6311 10.7103 31.4113 11.975 31.9796 13.3496H35V13.4273H32.0114C32.6693 15.0463 33.0337 16.8159 33.0388 18.6699H35V18.7476H33.0388C33.0338 20.6016 32.6694 22.3712 32.0116 23.9902H35V24.0679H31.9798C31.4115 25.4427 30.6312 26.7076 29.6796 27.8217V29.3105H35V29.3882H29.6796V34.709H29.602V29.3882H28.1132C26.999 30.3399 25.7341 31.1203 24.3592 31.6886V34.709H24.2816V31.7205C22.6625 32.3783 20.8929 32.7428 19.0388 32.7478V34.709H18.9612V32.7478C17.1071 32.7428 15.3375 32.3783 13.7184 31.7205V34.709H13.6408V31.6886C12.2659 31.1203 11.001 30.3399 9.88678 29.3882H8.39804V34.709H8.32037V29.3882H3V29.3105H8.32037V27.8217C7.36877 26.7076 6.58847 25.4427 6.02023 24.0679H3V23.9902H5.9884C5.3306 22.3712 4.96621 20.6016 4.96122 18.7476H3V18.6699H4.96122C4.96627 16.8159 5.33073 15.0463 5.9886 13.4273H3V13.3496H6.02044C6.58866 11.975 7.36889 10.7103 8.32037 9.59626V8.10697H3V8.0293H8.32037V2.70898H8.39804V8.0293H9.88736C11.0014 7.07781 12.2661 6.29758 13.6408 5.72937V2.70898H13.7184V5.69753C15.3375 5.03968 17.1071 4.67524 18.9612 4.67022V2.70898ZM18.9612 4.74789C17.1062 4.75294 15.3364 5.11973 13.7184 5.78143V8.0293H18.9612V4.74789ZM13.6408 5.81347C12.3137 6.36561 11.0902 7.11662 10.0074 8.0293H13.6408V5.81347ZM9.79719 8.10697H8.39804V9.5061C8.8311 9.00764 9.29872 8.54002 9.79719 8.10697ZM8.39804 9.62497C8.86452 9.08105 9.37213 8.57344 9.91606 8.10697H13.6408V13.3496H8.39804V9.62497ZM8.32037 9.71632C7.4077 10.7991 6.65669 12.0226 6.10454 13.3496H8.32037V9.71632ZM6.0725 13.4273C5.41078 15.0452 5.04397 16.815 5.03889 18.6699H8.32037V13.4273H6.0725ZM5.03889 18.7476C5.04391 20.6025 5.41065 22.3723 6.0723 23.9902H8.32037V18.7476H5.03889ZM6.10434 24.0679C6.6565 25.3951 7.40759 26.6188 8.32037 27.7017V24.0679H6.10434ZM8.39804 27.9119V29.3105H9.79662C9.29837 28.8776 8.83093 28.4102 8.39804 27.9119ZM9.91548 29.3105C9.37178 28.8442 8.86436 28.3368 8.39804 27.793V24.0679H13.6408V29.3105H9.91548ZM10.0068 29.3882C11.0898 30.3011 12.3135 31.0523 13.6408 31.6045V29.3882H10.0068ZM13.7184 31.6366C15.3364 32.2983 17.1062 32.6651 18.9612 32.6701V29.3882H13.7184V31.6366ZM19.0388 32.6701C20.8937 32.6651 22.6636 32.2983 24.2816 31.6366V29.3882H19.0388V32.6701ZM24.3592 31.6045C25.6865 31.0523 26.9102 30.3011 27.9932 29.3882H24.3592V31.6045ZM28.2034 29.3105H29.602V27.9119C29.1691 28.4102 28.7016 28.8776 28.2034 29.3105ZM29.602 27.793C29.1356 28.3368 28.6282 28.8442 28.0845 29.3105H24.3592V24.0679H29.602V27.793ZM29.6796 27.7017C30.5924 26.6188 31.3435 25.3951 31.8957 24.0679H29.6796V27.7017ZM31.9277 23.9902C32.5894 22.3723 32.9561 20.6025 32.9611 18.7476H29.6796V23.9902H31.9277ZM32.9611 18.6699C32.956 16.815 32.5892 15.0452 31.9275 13.4273H29.6796V18.6699H32.9611ZM31.8955 13.3496C31.3433 12.0226 30.5923 10.7991 29.6796 9.71632V13.3496H31.8955ZM29.602 9.5061V8.10697H28.2028C28.7013 8.54002 29.1689 9.00764 29.602 9.5061ZM28.0839 8.10697C28.6279 8.57344 29.1355 9.08105 29.602 9.62497V13.3496H24.3592V8.10697H28.0839ZM27.9926 8.0293C26.9098 7.11662 25.6863 6.36561 24.3592 5.81347V8.0293H27.9926ZM24.2816 5.78143C22.6636 5.11973 20.8937 4.75294 19.0388 4.74789V8.0293H24.2816V5.78143ZM13.7184 8.10697H18.9612V13.3496H13.7184V8.10697ZM24.2816 8.10697H19.0388V13.3496H24.2816V8.10697ZM13.6408 23.9902H8.39804V18.7476H13.6408V23.9902ZM13.7184 24.0679V29.3105H18.9612V24.0679H13.7184ZM18.9612 23.9902H13.7184V18.7476H18.9612V23.9902ZM19.0388 24.0679V29.3105H24.2816V24.0679H19.0388ZM24.2816 23.9902H19.0388V18.7476H24.2816V23.9902ZM29.602 23.9902H24.3592V18.7476H29.602V23.9902ZM13.7184 13.4273H18.9612V18.6699H13.7184V13.4273ZM8.39804 13.4273L13.6408 13.4273V18.6699H8.39804V13.4273ZM24.2816 13.4273H19.0388V18.6699H24.2816V13.4273ZM24.3592 18.6699V13.4273L29.602 13.4273V18.6699H24.3592Z" fill="#0A0D12"/>
</g>
<g filter="url(#filter1_dd_526_16170)">
<rect x="11" y="10.709" width="16" height="16" rx="8" fill="url(#paint1_linear_526_16170)"/>
<path d="M23.8 14.75C23.8 16.0984 21.6509 15.2383 19 15.2383C16.349 15.2383 14.2 16.0984 14.2 14.75C14.2 13.4017 16.349 12.3086 19 12.3086C21.6509 12.3086 23.8 13.4017 23.8 14.75Z" fill="url(#paint2_linear_526_16170)" fill-opacity="0.4"/>
</g>
<path d="M3 18.709H35V21.909C35 26.3894 35 28.6296 34.1281 30.3409C33.3611 31.8462 32.1372 33.07 30.6319 33.837C28.9206 34.709 26.6804 34.709 22.2 34.709H15.8C11.3196 34.709 9.07937 34.709 7.36808 33.837C5.86278 33.07 4.63893 31.8462 3.87195 30.3409C3 28.6296 3 26.3894 3 21.909V18.709Z" fill="white" fill-opacity="0.2"/>
</g>
<path d="M3.1 15.509C3.1 13.2671 3.10008 11.5917 3.20866 10.2627C3.31715 8.93491 3.53345 7.96166 3.96105 7.12246C4.71845 5.63598 5.92699 4.42743 7.41348 3.67003C8.25268 3.24244 9.22593 3.02613 10.5538 2.91765C11.8828 2.80906 13.5581 2.80898 15.8 2.80898H22.2C24.4419 2.80898 26.1172 2.80906 27.4462 2.91765C28.7741 3.02613 29.7473 3.24244 30.5865 3.67003C32.073 4.42743 33.2816 5.63598 34.039 7.12246C34.4665 7.96166 34.6828 8.93491 34.7913 10.2627C34.8999 11.5917 34.9 13.2671 34.9 15.509V21.909C34.9 24.1508 34.8999 25.8262 34.7913 27.1552C34.6828 28.4831 34.4665 29.4563 34.039 30.2955C33.2816 31.782 32.073 32.9905 30.5865 33.7479C29.7473 34.1755 28.7741 34.3918 27.4462 34.5003C26.1172 34.6089 24.4419 34.609 22.2 34.609H15.8C13.5581 34.609 11.8828 34.6089 10.5538 34.5003C9.22593 34.3918 8.25268 34.1755 7.41348 33.7479C5.92699 32.9905 4.71845 31.782 3.96105 30.2955C3.53345 29.4563 3.31715 28.4831 3.20866 27.1552C3.10008 25.8262 3.1 24.1508 3.1 21.909V15.509Z" stroke="#0A0D12" stroke-opacity="0.12" stroke-width="0.2"/>
</g>
<defs>
<filter id="filter0_dddi_526_16170" x="0" y="0.708984" width="38" height="38" filterUnits="userSpaceOnUse" color-interpolation-filters="sRGB">
<feFlood flood-opacity="0" result="BackgroundImageFix"/>
<feColorMatrix in="SourceAlpha" type="matrix" values="0 0 0 0 0 0 0 0 0 0 0 0 0 0 0 0 0 0 127 0" result="hardAlpha"/>
<feOffset dy="1"/>
<feGaussianBlur stdDeviation="1"/>
<feColorMatrix type="matrix" values="0 0 0 0 0.0392157 0 0 0 0 0.0509804 0 0 0 0 0.0705882 0 0 0 0.06 0"/>
<feBlend mode="normal" in2="BackgroundImageFix" result="effect1_dropShadow_526_16170"/>
<feColorMatrix in="SourceAlpha" type="matrix" values="0 0 0 0 0 0 0 0 0 0 0 0 0 0 0 0 0 0 127 0" result="hardAlpha"/>
<feOffset dy="1"/>
<feGaussianBlur stdDeviation="1.5"/>
<feColorMatrix type="matrix" values="0 0 0 0 0.0392157 0 0 0 0 0.0509804 0 0 0 0 0.0705882 0 0 0 0.1 0"/>
<feBlend mode="normal" in2="effect1_dropShadow_526_16170" result="effect2_dropShadow_526_16170"/>
<feColorMatrix in="SourceAlpha" type="matrix" values="0 0 0 0 0 0 0 0 0 0 0 0 0 0 0 0 0 0 127 0" result="hardAlpha"/>
<feMorphology radius="0.5" operator="erode" in="SourceAlpha" result="effect3_dropShadow_526_16170"/>
<feOffset dy="1"/>
<feGaussianBlur stdDeviation="0.5"/>
<feComposite in2="hardAlpha" operator="out"/>
<feColorMatrix type="matrix" values="0 0 0 0 0.0392157 0 0 0 0 0.0509804 0 0 0 0 0.0705882 0 0 0 0.13 0"/>
<feBlend mode="normal" in2="effect2_dropShadow_526_16170" result="effect3_dropShadow_526_16170"/>
<feBlend mode="normal" in="SourceGraphic" in2="effect3_dropShadow_526_16170" result="shape"/>
<feColorMatrix in="SourceAlpha" type="matrix" values="0 0 0 0 0 0 0 0 0 0 0 0 0 0 0 0 0 0 127 0" result="hardAlpha"/>
<feOffset dy="-0.5"/>
<feGaussianBlur stdDeviation="0.25"/>
<feComposite in2="hardAlpha" operator="arithmetic" k2="-1" k3="1"/>
<feColorMatrix type="matrix" values="0 0 0 0 0.0392157 0 0 0 0 0.0509804 0 0 0 0 0.0705882 0 0 0 0.1 0"/>
<feBlend mode="normal" in2="shape" result="effect4_innerShadow_526_16170"/>
</filter>
<filter id="filter1_dd_526_16170" x="8" y="8.70898" width="22" height="22" filterUnits="userSpaceOnUse" color-interpolation-filters="sRGB">
<feFlood flood-opacity="0" result="BackgroundImageFix"/>
<feColorMatrix in="SourceAlpha" type="matrix" values="0 0 0 0 0 0 0 0 0 0 0 0 0 0 0 0 0 0 127 0" result="hardAlpha"/>
<feOffset dy="1"/>
<feGaussianBlur stdDeviation="1"/>
<feColorMatrix type="matrix" values="0 0 0 0 0.0392157 0 0 0 0 0.0509804 0 0 0 0 0.0705882 0 0 0 0.06 0"/>
<feBlend mode="normal" in2="BackgroundImageFix" result="effect1_dropShadow_526_16170"/>
<feColorMatrix in="SourceAlpha" type="matrix" values="0 0 0 0 0 0 0 0 0 0 0 0 0 0 0 0 0 0 127 0" result="hardAlpha"/>
<feOffset dy="1"/>
<feGaussianBlur stdDeviation="1.5"/>
<feColorMatrix type="matrix" values="0 0 0 0 0.0392157 0 0 0 0 0.0509804 0 0 0 0 0.0705882 0 0 0 0.1 0"/>
<feBlend mode="normal" in2="effect1_dropShadow_526_16170" result="effect2_dropShadow_526_16170"/>
<feBlend mode="normal" in="SourceGraphic" in2="effect2_dropShadow_526_16170" result="shape"/>
</filter>
<linearGradient id="paint0_linear_526_16170" x1="19" y1="2.70898" x2="19" y2="34.709" gradientUnits="userSpaceOnUse">
<stop stop-color="white"/>
<stop offset="1" stop-color="#0A0D12"/>
</linearGradient>
<linearGradient id="paint1_linear_526_16170" x1="11" y1="10.709" x2="27" y2="10.709" gradientUnits="userSpaceOnUse">
<stop stop-color="#2E884A"/>
<stop offset="1" stop-color="#339551"/>
</linearGradient>
<linearGradient id="paint2_linear_526_16170" x1="19" y1="12.3086" x2="19" y2="15.5086" gradientUnits="userSpaceOnUse">
<stop stop-color="white"/>
<stop offset="1" stop-color="white" stop-opacity="0.1"/>
</linearGradient>
<clipPath id="clip0_526_16170">
<path d="M3 15.509C3 11.0286 3 8.78835 3.87195 7.07706C4.63893 5.57176 5.86278 4.34792 7.36808 3.58093C9.07937 2.70898 11.3196 2.70898 15.8 2.70898H22.2C26.6804 2.70898 28.9206 2.70898 30.6319 3.58093C32.1372 4.34792 33.3611 5.57176 34.1281 7.07706C35 8.78835 35 11.0286 35 15.509V21.909C35 26.3894 35 28.6296 34.1281 30.3409C33.3611 31.8462 32.1372 33.07 30.6319 33.837C28.9206 34.709 26.6804 34.709 22.2 34.709H15.8C11.3196 34.709 9.07937 34.709 7.36808 33.837C5.86278 33.07 4.63893 31.8462 3.87195 30.3409C3 28.6296 3 26.3894 3 21.909V15.509Z" fill="white"/>
</clipPath>
<clipPath id="clip1_526_16170">
<rect width="32" height="32" fill="white" transform="translate(3 2.70898)"/>
</clipPath>
</defs>
</svg>
