<svg width="20" height="20" viewBox="0 0 20 20" fill="none" xmlns="http://www.w3.org/2000/svg">
<g clip-path="url(#clip0_528_65962)">
<path d="M0.833008 0.833496H4.16634L6.39967 11.9918C6.47588 12.3755 6.6846 12.7201 6.9893 12.9654C7.29399 13.2107 7.67526 13.341 8.06634 13.3335H16.1663C16.5574 13.341 16.9387 13.2107 17.2434 12.9654C17.5481 12.7201 17.7568 12.3755 17.833 11.9918L19.1663 5.00016H4.99967M8.33301 17.5002C8.33301 17.9604 7.95991 18.3335 7.49967 18.3335C7.03944 18.3335 6.66634 17.9604 6.66634 17.5002C6.66634 17.0399 7.03944 16.6668 7.49967 16.6668C7.95991 16.6668 8.33301 17.0399 8.33301 17.5002ZM17.4997 17.5002C17.4997 17.9604 17.1266 18.3335 16.6663 18.3335C16.2061 18.3335 15.833 17.9604 15.833 17.5002C15.833 17.0399 16.2061 16.6668 16.6663 16.6668C17.1266 16.6668 17.4997 17.0399 17.4997 17.5002Z" stroke="#2E884A" stroke-width="2" stroke-linecap="round" stroke-linejoin="round"/>
</g>
<defs>
<clipPath id="clip0_528_65962">
<rect width="20" height="20" fill="white"/>
</clipPath>
</defs>
</svg>
