<svg width="18" height="20" viewBox="0 0 18 20" fill="none" xmlns="http://www.w3.org/2000/svg">
<path d="M1.5 4.99984L4 1.6665H14L16.5 4.99984M1.5 4.99984V16.6665C1.5 17.1085 1.67559 17.5325 1.98816 17.845C2.30072 18.1576 2.72464 18.3332 3.16667 18.3332H14.8333C15.2754 18.3332 15.6993 18.1576 16.0118 17.845C16.3244 17.5325 16.5 17.1085 16.5 16.6665V4.99984M1.5 4.99984H16.5M12.3333 8.33317C12.3333 9.21723 11.9821 10.0651 11.357 10.6902C10.7319 11.3153 9.88405 11.6665 9 11.6665C8.11594 11.6665 7.2681 11.3153 6.64298 10.6902C6.01786 10.0651 5.66667 9.21723 5.66667 8.33317" stroke="#2E884A" stroke-width="2" stroke-linecap="round" stroke-linejoin="round"/>
</svg>
