<svg width="20" height="20" viewBox="0 0 20 20" fill="none" xmlns="http://www.w3.org/2000/svg">
<path d="M18.3337 9.99984C18.3337 14.6022 14.6027 18.3332 10.0003 18.3332M18.3337 9.99984C18.3337 5.39746 14.6027 1.6665 10.0003 1.6665M18.3337 9.99984H1.66699M10.0003 18.3332C5.39795 18.3332 1.66699 14.6022 1.66699 9.99984M10.0003 18.3332C12.0847 16.0512 13.2693 13.0898 13.3337 9.99984C13.2693 6.90987 12.0847 3.94846 10.0003 1.6665M10.0003 18.3332C7.91593 16.0512 6.73137 13.0898 6.66699 9.99984C6.73137 6.90987 7.91593 3.94846 10.0003 1.6665M1.66699 9.99984C1.66699 5.39746 5.39795 1.6665 10.0003 1.6665" stroke="#2E884A" stroke-width="2" stroke-linecap="round" stroke-linejoin="round"/>
</svg>
